<svg width="724" height="724" viewBox="0 0 724 724" fill="none" xmlns="http://www.w3.org/2000/svg">
<path d="M195.953 375.984V447.469H169.586V517H90.2891V351.57C90.2891 320.451 99.8594 294.734 119 274.422C138.271 253.979 162.49 243.758 191.656 243.758C223.818 243.758 250.706 257.625 272.32 285.359L207.281 332.82C203.635 322.664 197.19 317.586 187.945 317.586C175.706 317.586 169.586 326.049 169.586 342.977V375.984H195.953Z" fill="#FE328E"/>
<path d="M417.102 364.07C428.169 375.529 435.786 386.076 439.953 395.711C444.12 405.346 446.203 417.065 446.203 430.867C446.203 457.299 437.154 479.37 419.055 497.078C401.086 514.786 378.625 523.641 351.672 523.641C324.589 523.641 301.997 514.786 283.898 497.078C265.93 479.37 256.945 457.299 256.945 430.867C256.945 417.456 259.094 405.737 263.391 395.711C267.818 385.685 275.37 375.138 286.047 364.07C276.411 351.31 271.594 337.117 271.594 321.492C271.594 298.966 279.081 280.411 294.055 265.828C309.029 251.115 328.104 243.758 351.281 243.758C374.719 243.758 393.924 251.049 408.898 265.633C424.003 280.216 431.555 298.901 431.555 321.688C431.555 337.052 426.737 351.18 417.102 364.07ZM350.695 300.984C344.836 300.984 339.758 303.133 335.461 307.43C331.294 311.727 329.211 316.74 329.211 322.469C329.211 329.109 331.294 334.578 335.461 338.875C339.628 343.172 344.966 345.32 351.477 345.32C357.336 345.32 362.349 343.107 366.516 338.68C370.812 334.253 372.961 329.044 372.961 323.055C372.961 316.805 370.812 311.596 366.516 307.43C362.219 303.133 356.945 300.984 350.695 300.984ZM351.281 400.398C342.427 400.398 334.81 403.523 328.43 409.773C322.18 415.893 319.055 423.315 319.055 432.039C319.055 441.544 322.115 449.487 328.234 455.867C334.354 462.117 342.036 465.242 351.281 465.242C360.526 465.242 368.208 462.117 374.328 455.867C380.448 449.487 383.508 441.544 383.508 432.039C383.508 423.445 380.318 416.023 373.938 409.773C367.557 403.523 360.005 400.398 351.281 400.398Z" fill="black"/>
<path d="M631.922 517H558.875V407.039C558.875 395.841 554.253 390.242 545.008 390.242C535.893 390.242 531.336 395.841 531.336 407.039V517H458.289V408.406C458.289 383.016 466.688 361.661 483.484 344.344C500.281 326.896 520.854 318.172 545.203 318.172C573.068 318.172 595.398 328.263 612.195 348.445C625.346 364.201 631.922 386.141 631.922 414.266V517Z" fill="#FE328E"/>
</svg>
